<?xml version="1.0" encoding="UTF-8"?>
<!DOCTYPE svg PUBLIC "-//W3C//DTD SVG 1.1//EN" "http://www.w3.org/Graphics/SVG/1.1/DTD/svg11.dtd">
<!-- Creator: CorelDRAW 2020 (64-Bit) -->
<svg xmlns="http://www.w3.org/2000/svg" xml:space="preserve" width="120px" height="60px" version="1.1" style="shape-rendering:geometricPrecision; text-rendering:geometricPrecision; image-rendering:optimizeQuality; fill-rule:evenodd; clip-rule:evenodd"
viewBox="0 0 120 60"
 xmlns:xlink="http://www.w3.org/1999/xlink"
 xmlns:xodm="http://www.corel.com/coreldraw/odm/2003">
 <defs>
  <style type="text/css">
   <![CDATA[
    .fil28 {fill:#595959;fill-rule:nonzero}
    .fil14 {fill:#93091A;fill-rule:nonzero}
    .fil29 {fill:#9E9E9E;fill-rule:nonzero}
    .fil3 {fill:url(#id0);fill-rule:nonzero}
    .fil1 {fill:url(#id1);fill-rule:nonzero}
    .fil31 {fill:url(#id2);fill-rule:nonzero}
    .fil26 {fill:url(#id3);fill-rule:nonzero}
    .fil22 {fill:url(#id4);fill-rule:nonzero}
    .fil6 {fill:url(#id5);fill-rule:nonzero}
    .fil30 {fill:url(#id6);fill-rule:nonzero}
    .fil8 {fill:url(#id7);fill-rule:nonzero}
    .fil23 {fill:url(#id8);fill-rule:nonzero}
    .fil15 {fill:url(#id9);fill-rule:nonzero}
    .fil20 {fill:url(#id10);fill-rule:nonzero}
    .fil17 {fill:url(#id11);fill-rule:nonzero}
    .fil21 {fill:url(#id12);fill-rule:nonzero}
    .fil24 {fill:url(#id13);fill-rule:nonzero}
    .fil5 {fill:url(#id14);fill-rule:nonzero}
    .fil16 {fill:url(#id15);fill-rule:nonzero}
    .fil10 {fill:url(#id16);fill-rule:nonzero}
    .fil4 {fill:url(#id17);fill-rule:nonzero}
    .fil19 {fill:url(#id18);fill-rule:nonzero}
    .fil7 {fill:url(#id19);fill-rule:nonzero}
    .fil27 {fill:url(#id20);fill-rule:nonzero}
    .fil9 {fill:url(#id21);fill-rule:nonzero}
    .fil11 {fill:url(#id22);fill-rule:nonzero}
    .fil25 {fill:url(#id23);fill-rule:nonzero}
    .fil18 {fill:url(#id24);fill-rule:nonzero}
    .fil0 {fill:url(#id25);fill-rule:nonzero}
    .fil12 {fill:url(#id26);fill-rule:nonzero}
    .fil13 {fill:url(#id27);fill-rule:nonzero}
    .fil2 {fill:url(#id28);fill-rule:nonzero}
   ]]>
  </style>
  <linearGradient id="id0" gradientUnits="userSpaceOnUse" x1="68.765" y1="11.361" x2="68.765" y2="48.492">
   <stop offset="0" style="stop-opacity:1; stop-color:black"/>
   <stop offset="1" style="stop-opacity:1; stop-color:#1B1C1C"/>
  </linearGradient>
  <linearGradient id="id1" gradientUnits="userSpaceOnUse" x1="115.247" y1="16.665" x2="115.247" y2="42.127">
   <stop offset="0" style="stop-opacity:1; stop-color:#525956"/>
   <stop offset="1" style="stop-opacity:1; stop-color:#2C2E2E"/>
  </linearGradient>
  <linearGradient id="id2" gradientUnits="userSpaceOnUse" x1="34.771" y1="20.866" x2="21.161" y2="30.303">
   <stop offset="0" style="stop-opacity:1; stop-color:#363B39"/>
   <stop offset="1" style="stop-opacity:1; stop-color:black"/>
  </linearGradient>
  <linearGradient id="id3" gradientUnits="userSpaceOnUse" x1="80.377" y1="-0.231" x2="80.377" y2="5.008">
   <stop offset="0" style="stop-opacity:1; stop-color:#D2D6D5"/>
   <stop offset="1" style="stop-opacity:1; stop-color:white"/>
  </linearGradient>
  <linearGradient id="id4" gradientUnits="userSpaceOnUse" x1="82.777" y1="51.811" x2="76.027" y2="55.811">
   <stop offset="0" style="stop-opacity:1; stop-color:#363B39"/>
   <stop offset="1" style="stop-opacity:1; stop-color:#1B1C1C"/>
  </linearGradient>
  <linearGradient id="id5" gradientUnits="userSpaceOnUse" xlink:href="#id0" x1="19.073" y1="11.855" x2="19.073" y2="46.97">
  </linearGradient>
  <linearGradient id="id6" gradientUnits="userSpaceOnUse" xlink:href="#id4" x1="2.006" y1="20.909" x2="2.006" y2="37.883">
  </linearGradient>
  <linearGradient id="id7" gradientUnits="userSpaceOnUse" xlink:href="#id4" x1="67.787" y1="6.255" x2="67.787" y2="10.337">
  </linearGradient>
  <linearGradient id="id8" gradientUnits="userSpaceOnUse" x1="80.381" y1="53.798" x2="80.381" y2="59.063">
   <stop offset="0" style="stop-opacity:1; stop-color:white"/>
   <stop offset="1" style="stop-opacity:1; stop-color:#D2D6D5"/>
  </linearGradient>
  <linearGradient id="id9" gradientUnits="userSpaceOnUse" x1="94.31" y1="13.448" x2="112.345" y2="18.456">
   <stop offset="0" style="stop-opacity:1; stop-color:#D2DBDA"/>
   <stop offset="1" style="stop-opacity:1; stop-color:#B5B5B5"/>
  </linearGradient>
  <linearGradient id="id10" gradientUnits="userSpaceOnUse" x1="125.076" y1="1.981" x2="92.188" y2="13.505">
   <stop offset="0" style="stop-opacity:1; stop-color:#F7F7F7"/>
   <stop offset="1" style="stop-opacity:1; stop-color:#DBDBDB"/>
  </linearGradient>
  <linearGradient id="id11" gradientUnits="userSpaceOnUse" xlink:href="#id2" x1="83.701" y1="29.396" x2="75.214" y2="41.066">
  </linearGradient>
  <linearGradient id="id12" gradientUnits="userSpaceOnUse" xlink:href="#id10" x1="125.076" y1="530.058" x2="92.188" y2="518.534">
  </linearGradient>
  <linearGradient id="id13" gradientUnits="userSpaceOnUse" xlink:href="#id4" x1="79.457" y1="53.815" x2="79.457" y2="59.103">
  </linearGradient>
  <linearGradient id="id14" gradientUnits="userSpaceOnUse" xlink:href="#id4" x1="79.268" y1="8.178" x2="79.268" y2="50.614">
  </linearGradient>
  <linearGradient id="id15" gradientUnits="userSpaceOnUse" xlink:href="#id9" x1="93.249" y1="45.415" x2="111.284" y2="41.409">
  </linearGradient>
  <linearGradient id="id16" gradientUnits="userSpaceOnUse" xlink:href="#id4" x1="38.082" y1="7.349" x2="38.082" y2="11.379">
  </linearGradient>
  <linearGradient id="id17" gradientUnits="userSpaceOnUse" xlink:href="#id0" x1="87.746" y1="8.312" x2="87.746" y2="50.487">
  </linearGradient>
  <linearGradient id="id18" gradientUnits="userSpaceOnUse" xlink:href="#id10" x1="20.047" y1="23.03" x2="-16.023" y2="45.309">
  </linearGradient>
  <linearGradient id="id19" gradientUnits="userSpaceOnUse" xlink:href="#id4" x1="19.068" y1="12.775" x2="19.068" y2="46.043">
  </linearGradient>
  <linearGradient id="id20" gradientUnits="userSpaceOnUse" xlink:href="#id4" x1="79.457" y1="-0.309" x2="79.457" y2="4.987">
  </linearGradient>
  <linearGradient id="id21" gradientUnits="userSpaceOnUse" xlink:href="#id4" x1="67.787" y1="48.5" x2="67.787" y2="52.583">
  </linearGradient>
  <linearGradient id="id22" gradientUnits="userSpaceOnUse" xlink:href="#id4" x1="38.082" y1="47.474" x2="38.082" y2="51.503">
  </linearGradient>
  <linearGradient id="id23" gradientUnits="userSpaceOnUse" xlink:href="#id4" x1="82.8" y1="6.048" x2="75.2" y2="9.039">
  </linearGradient>
  <linearGradient id="id24" gradientUnits="userSpaceOnUse" xlink:href="#id10" x1="68.571" y1="17.726" x2="-6.255" y2="63.345">
  </linearGradient>
  <radialGradient id="id25" gradientUnits="userSpaceOnUse" gradientTransform="matrix(1.44475E-14 0.545508 -1.18254 3.1319E-14 94 -3)" cx="59.333" cy="29.473" r="57.925" fx="59.333" fy="29.473">
   <stop offset="0" style="stop-opacity:1; stop-color:#F7F7F7"/>
   <stop offset="1" style="stop-opacity:1; stop-color:#A8ABAA"/>
  </radialGradient>
  <radialGradient id="id26" gradientUnits="userSpaceOnUse" gradientTransform="matrix(1.95057E-14 0.768718 -0.794637 2.1222E-14 123 -76)" cx="113.538" cy="11.371" r="4.14" fx="113.538" fy="11.371">
   <stop offset="0" style="stop-opacity:1; stop-color:white"/>
   <stop offset="1" style="stop-opacity:1; stop-color:#D2D6D5"/>
  </radialGradient>
  <radialGradient id="id27" gradientUnits="userSpaceOnUse" gradientTransform="matrix(2.09331E-14 0.824971 -0.852821 2.27759E-14 154 -46)" xlink:href="#id26" cx="113.538" cy="47.511" r="3.858" fx="113.538" fy="47.511">
  </radialGradient>
  <radialGradient id="id28" gradientUnits="userSpaceOnUse" gradientTransform="matrix(1.14219E-14 0.431268 -1.69702 4.49449E-14 107 5)" xlink:href="#id26" cx="57.244" cy="29.498" r="56.731" fx="57.244" fy="29.498">
  </radialGradient>
 </defs>
 <g id="Слой_x0020_1">
  <metadata id="CorelCorpID_0Corel-Layer"/>
  <g id="_827664368">
   <g>
    <path class="fil0" d="M99.986 56.236c5.199,-0.604 7.893,-1.559 10.047,-3.267 -0.16,-0.711 -0.022,-1.475 0.456,-2.111l4.519 -6.164c0.478,-0.647 1.199,-1.04 1.952,-1.135 0.107,-0.297 0.202,-0.594 0.298,-0.902l-5.719 0 0 -25.302 5.718 0c-0.095,-0.308 -0.191,-0.605 -0.297,-0.902 -0.764,-0.096 -1.475,-0.489 -1.952,-1.135l-4.519 -6.164c-0.467,-0.637 -0.605,-1.401 -0.457,-2.112 -2.164,-1.708 -4.848,-2.673 -10.046,-3.267 -13.76,-1.591 -35.381,1.103 -40.707,1.04 -28.411,-0.351 -45.704,-0.584 -51.687,1.294 -1.135,0.361 -2.08,1.252 -2.854,2.482 0.127,0.266 0.202,0.584 0.202,0.976 0,2.196 -1.433,3.268 -1.019,5.697 0.276,1.602 -1.05,2.154 -1.994,2.334 -0.223,1.443 -0.393,2.886 -0.52,4.255 0.308,0.222 0.52,0.594 0.52,1.007l0 14.259c0,0.414 -0.202,0.785 -0.52,1.008 0.095,1.029 0.212,2.09 0.361,3.172 0.934,0.159 2.44,0.668 2.153,2.366 -0.414,2.429 1.019,3.501 1.019,5.708 0,0.689 -0.234,1.156 -0.541,1.474 0.838,1.539 1.888,2.653 3.193,3.066 5.984,1.889 23.287,1.645 51.687,1.295 5.326,-0.075 26.947,2.63 40.707,1.028z"/>
    <path class="fil1" d="M111.539 42.657l5.718 0c2.239,-7.214 2.239,-18.078 0,-25.302l-5.718 0 0 25.302z"/>
    <path class="fil2" d="M99.137 54.666c8.636,-0.976 10.078,-2.949 14.121,-7.808 5.495,-6.588 5.495,-27.127 0,-33.715 -4.053,-4.859 -5.496,-6.832 -14.121,-7.809 -13.24,-1.495 -34.055,1.04 -39.179,0.976 -27.339,-0.328 -43.995,-0.551 -49.756,1.22 -6.641,2.037 -6.281,22.47 -6.281,22.47 0,0 -0.361,20.423 6.281,22.47 5.761,1.772 22.406,1.549 49.756,1.22 5.124,-0.063 25.939,2.472 39.179,0.976z"/>
    <path class="fil3" d="M70.578 19.943c-0.605,-4.275 -1.783,-7.331 -2.26,-8.466l-1.889 0.329c0,0 1.719,3.342 2.483,8.562 0.658,4.508 0.658,14.746 0,19.255 -0.764,5.219 -2.483,8.561 -2.483,8.561l1.889 0.33c0.488,-1.136 1.666,-4.191 2.26,-8.456 0.668,-4.7 0.668,-15.404 0,-20.115z"/>
    <path class="fil4" d="M84.794 10.162c0.721,1.655 1.92,4.54 2.896,9.06 1.411,6.482 1.411,15.086 0,21.568 -0.987,4.519 -2.175,7.394 -2.896,9.06 -0.318,0.721 -0.573,1.188 -0.838,1.421l0.052 0.011c0,0 1.369,0.307 1.73,0.106 0.318,-0.17 0.615,-0.668 0.997,-1.538 0.722,-1.655 1.92,-4.541 2.896,-9.06 1.412,-6.482 1.412,-15.086 0,-21.568 -0.986,-4.52 -2.174,-7.395 -2.896,-9.06 -0.382,-0.87 -0.679,-1.369 -0.997,-1.539 -0.372,-0.201 -1.73,0.106 -1.73,0.106l-0.052 0.011c0.265,0.233 0.52,0.7 0.838,1.422z"/>
    <path class="fil5" d="M70.578 19.943c0.657,4.711 0.657,15.415 0,20.126 -0.605,4.275 -1.783,7.33 -2.26,8.455l15.638 2.737c0.265,-0.234 0.52,-0.7 0.838,-1.422 0.721,-1.655 1.92,-4.54 2.896,-9.06 1.411,-6.481 1.411,-15.086 0,-21.568 -0.986,-4.519 -2.175,-7.394 -2.896,-9.06 -0.318,-0.721 -0.573,-1.188 -0.838,-1.421l-15.638 2.737c0.488,1.145 1.666,4.201 2.26,8.476z"/>
    <path class="fil6" d="M25.394 47.166c0.679,-0.138 1.358,-0.297 2.037,-0.488 0,0 -0.128,-0.244 -0.318,-0.732 -0.711,-1.783 -2.388,-6.918 -2.388,-15.946 0,-8.264 1.74,-13.982 2.43,-15.934 0.17,-0.478 0.276,-0.732 0.276,-0.732 -0.658,-0.181 -1.316,-0.34 -1.963,-0.478 -6.429,-1.337 -12.571,-0.689 -12.571,-0.689 0,0 -1.634,3.628 -2.578,8.827 -0.733,3.988 -0.733,14.035 0,18.024 0.954,5.188 2.578,8.827 2.578,8.827 0,0 6.089,0.647 12.497,-0.679zm-10.864 -0.573c0,0 -1.633,-3.374 -2.578,-8.201 -0.732,-3.713 -0.732,-13.06 0,-16.773 0.955,-4.827 2.578,-8.2 2.578,-8.2 0,0 4.997,-0.488 10.694,0.329 -0.806,3.044 -1.941,8.709 -1.941,16.263 0,8.105 1.061,13.431 1.857,16.275 -5.666,0.795 -10.61,0.307 -10.61,0.307z"/>
    <path class="fil7" d="M25.224 13.747c-5.697,-0.816 -10.694,-0.328 -10.694,-0.328 0,0 -1.633,3.373 -2.578,8.2 -0.732,3.713 -0.732,13.06 0,16.773 0.955,4.827 2.578,8.201 2.578,8.201 0,0 4.944,0.488 10.61,-0.318 -0.796,-2.844 -1.857,-8.17 -1.857,-16.275 0,-7.543 1.135,-13.208 1.941,-16.253z"/>
    <g>
     <path class="fil8" d="M50.389 7.69l-1.22 3.607 16.168 -0.616 19.16 -3.437c0,0 -4.912,-0.297 -11.957,0 -4.456,0.191 -10.587,0.721 -14.534,0.711 -3.755,-0.011 -6.302,-0.149 -7.617,-0.265z"/>
     <path class="fil9" d="M50.389 52.322l-1.22 -3.607 16.168 0.626 19.16 3.437c0,0 -4.912,0.297 -11.957,0 -4.456,-0.191 -10.587,-0.721 -14.534,-0.711 -3.755,0.011 -6.333,0.117 -7.617,0.255z"/>
    </g>
    <g>
     <path class="fil10" d="M48.904 7.584l-1.56 3.734 -13.516 0.414c0,0 -1.676,-0.329 -4.445,-1.719 -3.161,-1.591 -4.042,-2.429 -4.042,-2.429 0,0 18.492,-0.414 23.563,0z"/>
     <path class="fil11" d="M48.904 52.428l-1.56 -3.735 -13.516 -0.413c0,0 -1.676,0.329 -4.445,1.719 -3.161,1.591 -4.042,2.429 -4.042,2.429 0,0 18.492,0.414 23.563,0z"/>
    </g>
    <g>
     <path class="fil12" d="M110.489 9.154l4.519 6.164c0.478,0.647 1.199,1.039 1.952,1.135 -0.615,-1.762 -1.389,-3.268 -2.302,-4.382 -1.771,-2.164 -3.055,-3.798 -4.625,-5.029 -0.149,0.711 -0.011,1.475 0.456,2.112z"/>
     <path class="fil13" d="M115.008 44.694l-4.519 6.164c-0.467,0.636 -0.605,1.4 -0.456,2.111 1.57,-1.241 2.853,-2.865 4.625,-5.029 0.912,-1.124 1.676,-2.62 2.302,-4.381 -0.764,0.095 -1.474,0.477 -1.952,1.135z"/>
    </g>
    <path class="fil14" d="M3.921 15.264c-0.414,-2.429 1.019,-3.501 1.019,-5.696 0,-0.393 -0.075,-0.711 -0.202,-0.976 -1.4,2.238 -2.27,5.601 -2.811,9.017 0.933,-0.191 2.27,-0.732 1.994,-2.345z"/>
    <path class="fil14" d="M3.921 43.665c0.287,-1.698 -1.22,-2.207 -2.153,-2.366 0.477,3.49 1.284,7.066 2.631,9.548 0.318,-0.318 0.541,-0.785 0.541,-1.475 0,-2.206 -1.433,-3.278 -1.019,-5.707z"/>
    <path class="fil15" d="M90.703 12.867c0,0 7.617,4.169 10.439,4.742 2.164,0.435 8.837,-0.244 8.837,-0.244 0,0 -6.365,-0.456 -8.423,-0.902 -2.801,-0.615 -10.853,-3.596 -10.853,-3.596z"/>
    <path class="fil16" d="M90.703 47.198c0,0 7.617,-4.17 10.439,-4.743 2.164,-0.435 8.837,0.244 8.837,0.244 0,0 -6.365,0.457 -8.423,0.902 -2.801,0.605 -10.853,3.597 -10.853,3.597z"/>
    <path class="fil17" d="M84.794 49.85c0.721,-1.655 1.92,-4.541 2.896,-9.06 0.34,-1.581 0.605,-3.289 0.775,-5.061 -4.902,-4.551 -13.792,-9.94 -17.558,-12.147 0.307,5.294 0.191,12.763 -0.329,16.487 -0.605,4.275 -1.783,7.33 -2.26,8.455l15.638 2.737c0.265,-0.223 0.52,-0.69 0.838,-1.411z"/>
    <path class="fil18" d="M67.671 30.011c0.297,-13.208 -2.101,-17.643 -2.101,-17.643 0,0 -32.007,0.159 -35.19,1.167 -2.153,0.679 -3.108,9.007 -3.501,14.29l0 4.361c0.393,5.283 1.348,13.611 3.501,14.29 3.183,1.008 35.19,1.167 35.19,1.167 0,0 2.398,-4.424 2.101,-17.632z"/>
    <path class="fil19" d="M4.982 32.303c0.403,12.826 4.042,18.502 4.042,18.502l3.056 -2.536c-4.488,-8.01 -3.565,-18.268 -3.565,-18.268l0 0c0,-0.011 -0.912,-10.259 3.565,-18.269l-3.056 -2.536c0,0 -3.639,5.676 -4.042,18.502 -0.021,0.669 -0.042,2.303 -0.042,2.303l0 0c0,0.88 0.021,1.633 0.042,2.302z"/>
    <path class="fil20" d="M113.979 15.307c0,0 -4.021,-7.957 -12.943,-8.795 -9.123,-0.859 -13.717,-0.732 -13.717,-0.732 0,0 21.822,2.716 26.66,9.527z"/>
    <path class="fil21" d="M113.979 44.747c0,0 -4.021,7.957 -12.943,8.795 -9.123,0.859 -13.717,0.732 -13.717,0.732 0,0 21.822,-2.716 26.66,-9.527z"/>
    <g>
     <path class="fil22" d="M83.308 52.629c0,0 -0.402,2.058 -2.174,2.112 -1.762,0.042 -5.347,-2.058 -3.077,-2.112 2.26,-0.053 4.573,-0.19 5.251,0z"/>
     <path class="fil23" d="M79.436 59.801c0.616,-0.456 1.899,-4.604 1.899,-4.604 0.266,-0.817 -0.456,-1.103 -1.071,-1.199l-1.814 5.952c0.275,0.074 0.647,0.095 0.986,-0.149z"/>
     <path class="fil24" d="M80.264 53.998c-0.404,-0.063 -0.754,-0.042 -0.754,-0.042l-1.453 5.845c0,0 0.17,0.095 0.403,0.149l1.804 -5.952z"/>
    </g>
    <g>
     <path class="fil25" d="M83.425 7.361c0,0 -0.403,-2.196 -2.175,-2.249 -1.761,-0.053 -5.347,2.196 -3.087,2.249 2.27,0.053 4.583,0.202 5.262,0z"/>
     <path class="fil26" d="M81.452 4.804c0,0 -1.294,-4.148 -1.899,-4.604 -0.361,-0.276 -0.785,-0.212 -1.061,-0.127l1.825 5.94c0.625,-0.095 1.421,-0.36 1.135,-1.209z"/>
     <path class="fil27" d="M78.492 0.062c-0.191,0.053 -0.318,0.127 -0.318,0.127l1.453 5.845c0,0 0.318,0.011 0.69,-0.031l-1.825 -5.941z"/>
    </g>
    <path class="fil28" d="M60.107 4.868c0,-0.308 -0.244,-0.552 -0.552,-0.552l-4.551 0c-0.308,0 -0.552,0.244 -0.552,0.552l5.655 0z"/>
    <path class="fil28" d="M37.35 4.592c0,-0.308 -0.243,-0.552 -0.552,-0.552l-4.54 0c-0.308,0 -0.552,0.244 -0.552,0.552l5.644 0z"/>
    <path class="fil28" d="M60.107 55.144c0,0.307 -0.244,0.551 -0.552,0.551l-4.551 0c-0.308,0 -0.552,-0.243 -0.552,-0.551l5.655 0z"/>
    <path class="fil28" d="M37.35 55.42c0,0.307 -0.243,0.551 -0.552,0.551l-4.54 0c-0.308,0 -0.552,-0.243 -0.552,-0.551l5.644 0z"/>
    <g>
     <g>
      <g>
       <path class="fil29" d="M92.347 18.065c0.075,0.881 0.573,1.326 0.637,2.207 0.011,0.074 0.064,0.127 0.138,0.127 0.074,0 0.127,-0.053 0.127,-0.127 -0.074,-0.88 -0.573,-1.326 -0.636,-2.207 -0.011,-0.074 -0.064,-0.127 -0.138,-0.127 -0.075,0 -0.128,0.053 -0.128,0.127z"/>
       <path class="fil29" d="M92.729 20.272c-0.074,-0.881 -0.573,-1.326 -0.636,-2.207 -0.011,-0.074 -0.064,-0.127 -0.138,-0.127 -0.074,0 -0.127,0.053 -0.127,0.127 0.074,0.881 0.572,1.326 0.636,2.207 0.011,0.074 0.064,0.127 0.138,0.127 0.074,0 0.127,-0.053 0.127,-0.127z"/>
       <path class="fil29" d="M92.209 20.272c-0.074,-0.881 -0.573,-1.326 -0.636,-2.207 0,-0.074 -0.064,-0.127 -0.138,-0.127 -0.075,0 -0.127,0.053 -0.127,0.127 0.074,0.881 0.573,1.326 0.636,2.207 0.011,0.074 0.064,0.127 0.138,0.127 0.074,0 0.127,-0.053 0.127,-0.127z"/>
      </g>
     </g>
     <g>
      <g>
       <path class="fil29" d="M92.347 41.925c0.075,-0.881 0.573,-1.326 0.637,-2.207 0.011,-0.074 0.064,-0.127 0.138,-0.127 0.074,0 0.127,0.064 0.127,0.127 -0.074,0.881 -0.573,1.326 -0.636,2.207 -0.011,0.075 -0.064,0.127 -0.138,0.127 -0.075,0 -0.128,-0.052 -0.128,-0.127z"/>
       <path class="fil29" d="M92.729 39.718c-0.074,0.881 -0.573,1.326 -0.636,2.207 -0.011,0.075 -0.064,0.127 -0.138,0.127 -0.074,0 -0.127,-0.052 -0.127,-0.127 0.074,-0.881 0.572,-1.326 0.636,-2.207 0.011,-0.074 0.064,-0.127 0.138,-0.127 0.074,0 0.127,0.064 0.127,0.127z"/>
       <path class="fil29" d="M92.209 39.718c-0.074,0.881 -0.573,1.326 -0.636,2.207 0,0.075 -0.064,0.127 -0.138,0.127 -0.075,0 -0.127,-0.063 -0.127,-0.127 0.074,-0.881 0.573,-1.326 0.636,-2.207 0.011,-0.074 0.064,-0.127 0.138,-0.127 0.074,0 0.127,0.064 0.127,0.127z"/>
      </g>
     </g>
    </g>
    <path class="fil30" d="M1.927 37.13l0 -14.259c0,-0.414 -0.202,-0.774 -0.52,-1.007 -0.403,4.476 -0.339,8.137 -0.339,8.147 0,0 -0.064,3.66 0.339,8.127 0.318,-0.234 0.52,-0.595 0.52,-1.008z"/>
    <path class="fil31" d="M25.129 46.275c-0.796,-2.844 -1.857,-8.169 -1.857,-16.275 0,-1.655 0.053,-3.214 0.149,-4.689 -2.09,-4.647 -8.657,-7.468 -10.344,-8.127 -0.403,1.252 -0.807,2.748 -1.146,4.424 -0.732,3.713 -0.732,13.06 0,16.773 0.955,4.827 2.578,8.201 2.578,8.201 0,0 4.965,0.499 10.62,-0.307z"/>
   </g>
  </g>
 </g>
</svg>
