<svg xml:space="preserve" viewBox="0 0 100 100" y="0" x="0" xmlns="http://www.w3.org/2000/svg" version="1.1" width="173" height="173" style="width:100%;height:100%;background-size:initial;background-repeat-y:initial;background-repeat-x:initial;background-position-y:initial;background-position-x:initial;background-origin:initial;background-color:initial;background-clip:initial;background-attachment:initial;animation-play-state:paused"><g class="prefix__ldl-scale" style="animation-play-state:paused">
<path fill="#d1d1d1" d="M74.3 71.2c-5 0-9-3.5-10.2-8a3.6 3.6 0 0 1-.4 0H35.3a10.5 10.5 0 0 1-20.4-.2 3.5 3.5 0 0 1-.9 0c-5.1-.9-9-5.3-9-10.5v-.6c0-5.7 3.5-10.8 8-11.6 2-.3 5.7-2.5 7.9-5 3.3-3.7 9.5-6.4 14.5-6.5h14.4a22 22 0 0 1 14.7 6.5l.2.2a22 22 0 0 0 10 5.5l10 2c5.6 1 10 5.6 10.3 10.5 0 2.3-.8 4.6-2.4 6.3a11 11 0 0 1-7.8 3.4H84.5c-1.1 4.6-5.3 8-10.2 8z" style="animation-play-state:paused"/>
<path fill="#454545" d="M24.7 53.7a7 7 0 1 1 0 14 7 7 0 1 1 0-14zm49.3 0a7 7 0 1 1 0 14 7 7 0 0 1-7-7 7 7 0 0 1 7-7zm9.8-7.3-10.1-1.9c-4-.7-9.3-3.7-12-6.6l-.2-.3c-2.6-2.9-8-5.3-12-5.2H35c-4 0-9.3 2.4-12 5.3s-7 5.6-9.8 6C10.4 44.4 8 48 8.2 52v.5c0 3.6 2.7 6.5 6 7.1a10.6 10.6 0 0 1 21 .1h28.2a10.6 10.6 0 0 1 21 0c3.8 0 6.8-2.7 6.7-6-.1-3.2-3.4-6.4-7.3-7.2zM29.2 45c-4 0-5.7-2-4-4.3 2-2.4 6.7-4.4 10.6-4.4h4l2.5 8.8H29.2zm27.7.1H46.1l-2.6-8.8H49c4 0 9 2 11.2 4.4 2.1 2.5.7 4.5-3.3 4.4z" style="animation-play-state:paused"/></g>
</svg>